<?xml version="1.0" encoding="utf-8"?>
<!-- Generator: Adobe Illustrator 19.1.0, SVG Export Plug-In . SVG Version: 6.00 Build 0)  -->
<svg version="1.1" id="Capa_1" xmlns="http://www.w3.org/2000/svg" xmlns:xlink="http://www.w3.org/1999/xlink" x="0px" y="0px"
	 viewBox="-49 141 512 512" style="enable-background:new -49 141 512 512;" xml:space="preserve">
<style type="text/css">
	.st0{fill:#FFFFFF;}
</style>
<g>
	<path class="st0" d="M119.9,577.1l85.8-83.9l84.1,86c26.2,26.7,69.3,27.1,96,0.9s27.4-69.2,1.2-96l-84.1-86l86-84.2
		c26.7-26.2,27.3-69.1,1-95.9c-26.2-26.7-69.1-27.2-95.9-1l-86,84.1l-84.1-86c-26.2-26.7-69.3-27.1-96-0.9s-27.4,69.2-1.2,96
		l84.1,86l-85.8,84c-26.7,26.2-27.2,69.1-1,95.9S93.1,603.3,119.9,577.1z"/>
</g>
</svg>
